<?xml version="1.0" encoding="UTF-8" standalone="no"?>
<!DOCTYPE svg PUBLIC "-//W3C//DTD SVG 1.1//EN"
 "http://www.w3.org/Graphics/SVG/1.1/DTD/svg11.dtd">
<!-- Generated by graphviz version 2.44.1 (20200629.0846)
 -->
<!-- Title: dlog Pages: 1 -->
<svg width="388pt" height="370pt"
 viewBox="0.00 0.00 388.00 370.00" xmlns="http://www.w3.org/2000/svg" xmlns:xlink="http://www.w3.org/1999/xlink">
<g id="graph0" class="graph" transform="scale(1 1) rotate(0) translate(4 366)">
<title>dlog</title>
<polygon fill="white" stroke="transparent" points="-4,4 -4,-366 384,-366 384,4 -4,4"/>
<text text-anchor="start" x="9" y="-22.8" font-family="Times,serif" font-size="14.00">Hardness assumptions when a bilinear pairing exists from G to H.</text>
<text text-anchor="start" x="8" y="-7.8" font-family="Times,serif" font-size="14.00">An edge from u to v means that v is a stronger assumption than u.</text>
<!-- dlog(H) -->
<g id="node1" class="node">
<title>dlog(H)</title>
<ellipse fill="none" stroke="black" cx="188.47" cy="-344" rx="38.19" ry="18"/>
<text text-anchor="middle" x="188.47" y="-340.3" font-family="Times,serif" font-size="14.00">dlog(H)</text>
</g>
<!-- dlog(G) -->
<g id="node2" class="node">
<title>dlog(G)</title>
<ellipse fill="none" stroke="black" cx="155.47" cy="-272" rx="38.19" ry="18"/>
<text text-anchor="middle" x="155.47" y="-268.3" font-family="Times,serif" font-size="14.00">dlog(G)</text>
</g>
<!-- dlog(H)&#45;&gt;dlog(G) -->
<g id="edge1" class="edge">
<title>dlog(H)&#45;&gt;dlog(G)</title>
<path fill="none" stroke="black" d="M180.49,-326.05C176.68,-317.97 172.03,-308.12 167.78,-299.11"/>
<polygon fill="black" stroke="black" points="170.82,-297.34 163.39,-289.79 164.49,-300.33 170.82,-297.34"/>
</g>
<!-- cdh(H) -->
<g id="node4" class="node">
<title>cdh(H)</title>
<ellipse fill="none" stroke="black" cx="233.47" cy="-200" rx="36" ry="18"/>
<text text-anchor="middle" x="233.47" y="-196.3" font-family="Times,serif" font-size="14.00">cdh(H)</text>
</g>
<!-- dlog(H)&#45;&gt;cdh(H) -->
<g id="edge3" class="edge">
<title>dlog(H)&#45;&gt;cdh(H)</title>
<path fill="none" stroke="black" d="M193.81,-326.15C201.53,-301.81 215.86,-256.57 225.02,-227.67"/>
<polygon fill="black" stroke="black" points="228.46,-228.42 228.14,-217.82 221.78,-226.3 228.46,-228.42"/>
</g>
<!-- cdh(G) -->
<g id="node3" class="node">
<title>cdh(G)</title>
<ellipse fill="none" stroke="black" cx="144.47" cy="-200" rx="36" ry="18"/>
<text text-anchor="middle" x="144.47" y="-196.3" font-family="Times,serif" font-size="14.00">cdh(G)</text>
</g>
<!-- dlog(G)&#45;&gt;cdh(G) -->
<g id="edge2" class="edge">
<title>dlog(G)&#45;&gt;cdh(G)</title>
<path fill="none" stroke="black" d="M152.76,-253.7C151.54,-245.98 150.09,-236.71 148.73,-228.11"/>
<polygon fill="black" stroke="black" points="152.17,-227.44 147.16,-218.1 145.26,-228.53 152.17,-227.44"/>
</g>
<!-- cbdh(G, H) -->
<g id="node6" class="node">
<title>cbdh(G, H)</title>
<ellipse fill="none" stroke="black" cx="144.47" cy="-128" rx="51.19" ry="18"/>
<text text-anchor="middle" x="144.47" y="-124.3" font-family="Times,serif" font-size="14.00">cbdh(G, H)</text>
</g>
<!-- cdh(G)&#45;&gt;cbdh(G, H) -->
<g id="edge5" class="edge">
<title>cdh(G)&#45;&gt;cbdh(G, H)</title>
<path fill="none" stroke="black" d="M144.47,-181.7C144.47,-173.98 144.47,-164.71 144.47,-156.11"/>
<polygon fill="black" stroke="black" points="147.97,-156.1 144.47,-146.1 140.97,-156.1 147.97,-156.1"/>
</g>
<!-- ddh(H) -->
<g id="node5" class="node">
<title>ddh(H)</title>
<ellipse fill="none" stroke="black" cx="250.47" cy="-128" rx="36.29" ry="18"/>
<text text-anchor="middle" x="250.47" y="-124.3" font-family="Times,serif" font-size="14.00">ddh(H)</text>
</g>
<!-- cdh(H)&#45;&gt;ddh(H) -->
<g id="edge4" class="edge">
<title>cdh(H)&#45;&gt;ddh(H)</title>
<path fill="none" stroke="black" d="M237.59,-182.05C239.48,-174.26 241.77,-164.82 243.9,-156.08"/>
<polygon fill="black" stroke="black" points="247.32,-156.82 246.28,-146.28 240.52,-155.17 247.32,-156.82"/>
</g>
<!-- cdh(H)&#45;&gt;cbdh(G, H) -->
<g id="edge6" class="edge">
<title>cdh(H)&#45;&gt;cbdh(G, H)</title>
<path fill="none" stroke="black" d="M215.03,-184.5C202.81,-174.88 186.53,-162.07 172.68,-151.19"/>
<polygon fill="black" stroke="black" points="174.46,-148.13 164.44,-144.7 170.14,-153.64 174.46,-148.13"/>
</g>
<!-- dbdh(G, H) -->
<g id="node7" class="node">
<title>dbdh(G, H)</title>
<ellipse fill="none" stroke="black" cx="197.47" cy="-56" rx="51.99" ry="18"/>
<text text-anchor="middle" x="197.47" y="-52.3" font-family="Times,serif" font-size="14.00">dbdh(G, H)</text>
</g>
<!-- ddh(H)&#45;&gt;dbdh(G, H) -->
<g id="edge8" class="edge">
<title>ddh(H)&#45;&gt;dbdh(G, H)</title>
<path fill="none" stroke="black" d="M238.18,-110.76C231.65,-102.14 223.49,-91.36 216.2,-81.73"/>
<polygon fill="black" stroke="black" points="218.9,-79.49 210.07,-73.63 213.31,-83.72 218.9,-79.49"/>
</g>
<!-- cbdh(G, H)&#45;&gt;dbdh(G, H) -->
<g id="edge7" class="edge">
<title>cbdh(G, H)&#45;&gt;dbdh(G, H)</title>
<path fill="none" stroke="black" d="M157.03,-110.41C163.41,-101.99 171.29,-91.58 178.39,-82.2"/>
<polygon fill="black" stroke="black" points="181.39,-84.04 184.64,-73.96 175.81,-79.82 181.39,-84.04"/>
</g>
</g>
</svg>
